<svg xmlns="http://www.w3.org/2000/svg" width="20" height="20" viewBox="0 0 20 20">
  <path id="icon-consultas" d="M546.916,1457.377H543.38a.732.732,0,0,1-.732-.732v-3.535a.733.733,0,0,0-.732-.733H533.38a.733.733,0,0,0-.732.733v3.535a.732.732,0,0,1-.732.732H528.38a.733.733,0,0,0-.732.733v8.535a.732.732,0,0,0,.732.732h3.535a.733.733,0,0,1,.732.733v3.468a.8.8,0,0,0,.8.8h8.467a.732.732,0,0,0,.732-.732v-3.535a.733.733,0,0,1,.732-.733h3.535a.732.732,0,0,0,.732-.732v-8.535a.733.733,0,0,0-.732-.733" transform="translate(-527.648 -1452.377)" fill="#24b34a"/>
</svg>
